<svg width="600" height="600" viewbox = "0 0 600 600"  xmlns="http://www.w3.org/2000/svg">
<!--<json>{
  "shapes": [],
  "glyph": "0504,0504,0504,0504,0504,0504,0504,0504,0506,0506,0506,0506,0506,0506,0506,0506,0506,0506,0506,0506,0506,0506,0506,0506,0506,0506,0506,0506,0506,0506,0506,0507,0507,0507,0507,0507,0507,0507,0507,0507,0507,0507,0504,0504,0504,0504,0504,0504,01115,01101,01113,01105,0505,0505,0505,0505,0505,0505,0505,0505,0505,0506,0505,0506,0506,0506,0506,0506,0506,0506,0506,0506,0506,0506,0506,0506,0506,0506,0506,0506,0506,0506,0506,0506,0506,0506,0506,0506,0506,0506,0506,0505,0506,01101,01040,01103,01101,01122,01104,0505,0505,0505,0505,0505,0505,0505,0505,0505,0506,0505,0505,0505,0506,0506,0506,0506,0506,0506,0506,0506,0506,0506,0506,0506,0506,0506,0506,0506,0506,0506,0506,0506,0506,0506,0506,0506,0506,0506,0506,0506,0506,01124,01101,01113,01105,0505,0505,0505,0505,0505,0505,0505,0505,0505,0505,0505,0506,0506,0506,0506,0506,0506,0506,0506,0506,0506,0506,0506,0506,0506,0506,0506,0506,0506,0506,0506,0506,0506,0506,0506,0506,0506,0506,0506,0506,0506,01101,01040,01103,01101,01122,01104,0504,0504,0504,0504,0504,0504,0504,0504,0504,0504,0504,0504,0504,0504,0504,0504,0504,0504,0504,0506,0506,0506,0506,0506,0506,0506,0506,0506,0506,0506,0506,0506,0506,0506,0506,0506,0506,0504,",
  "x0": 300,
  "y0": 300,
  "unit": 72,
  "width": 600,
  "height": 600,
  "style": {
    "color0": "black",
    "fill0": "black",
    "line0": 1,
    "color1": "black",
    "fill1": "black",
    "line1": 5,
    "color2": "red",
    "fill2": "red",
    "line2": 1,
    "color3": "#FF7900",
    "fill3": "#FF7900",
    "line3": 1,
    "color4": "yellow",
    "fill4": "yellow",
    "line4": 1,
    "color5": "green",
    "fill5": "green",
    "line5": 1,
    "color6": "blue",
    "fill6": "blue",
    "line6": 1,
    "color7": "purple",
    "fill7": "purple",
    "line7": 1
  }
}</json>-->	<path d = "M203 176 L203 172 L199 172 L199 176 L203 176 Z" stroke = "#000000" stroke-width = "1" fill = "#000000" />	<path d = "M203 167 L203 163 L199 163 L199 167 L203 167 Z" stroke = "#000000" stroke-width = "1" fill = "#000000" />	<path d = "M203 158 L203 154 L199 154 L199 158 L203 158 Z" stroke = "#000000" stroke-width = "1" fill = "#000000" />	<path d = "M203 149 L203 145 L199 145 L199 149 L203 149 Z" stroke = "#000000" stroke-width = "1" fill = "#000000" />	<path d = "M203 140 L203 136 L199 136 L199 140 L203 140 Z" stroke = "#000000" stroke-width = "1" fill = "#000000" />	<path d = "M203 131 L203 127 L199 127 L199 131 L203 131 Z" stroke = "#000000" stroke-width = "1" fill = "#000000" />	<path d = "M203 122 L203 118 L199 118 L199 122 L203 122 Z" stroke = "#000000" stroke-width = "1" fill = "#000000" />	<path d = "M212 131 L212 127 L208 127 L208 131 L212 131 Z" stroke = "#000000" stroke-width = "1" fill = "#000000" />	<path d = "M221 140 L221 136 L217 136 L217 140 L221 140 Z" stroke = "#000000" stroke-width = "1" fill = "#000000" />	<path d = "M221 149 L221 145 L217 145 L217 149 L221 149 Z" stroke = "#000000" stroke-width = "1" fill = "#000000" />	<path d = "M230 131 L230 127 L226 127 L226 131 L230 131 Z" stroke = "#000000" stroke-width = "1" fill = "#000000" />	<path d = "M239 122 L239 118 L235 118 L235 122 L239 122 Z" stroke = "#000000" stroke-width = "1" fill = "#000000" />	<path d = "M239 131 L239 127 L235 127 L235 131 L239 131 Z" stroke = "#000000" stroke-width = "1" fill = "#000000" />	<path d = "M239 140 L239 136 L235 136 L235 140 L239 140 Z" stroke = "#000000" stroke-width = "1" fill = "#000000" />	<path d = "M239 149 L239 145 L235 145 L235 149 L239 149 Z" stroke = "#000000" stroke-width = "1" fill = "#000000" />	<path d = "M239 158 L239 154 L235 154 L235 158 L239 158 Z" stroke = "#000000" stroke-width = "1" fill = "#000000" />	<path d = "M239 167 L239 163 L235 163 L235 167 L239 167 Z" stroke = "#000000" stroke-width = "1" fill = "#000000" />	<path d = "M239 176 L239 172 L235 172 L235 176 L239 176 Z" stroke = "#000000" stroke-width = "1" fill = "#000000" />	<path d = "M257 176 L257 172 L253 172 L253 176 L257 176 Z" stroke = "#000000" stroke-width = "1" fill = "#000000" />	<path d = "M257 167 L257 163 L253 163 L253 167 L257 167 Z" stroke = "#000000" stroke-width = "1" fill = "#000000" />	<path d = "M257 158 L257 154 L253 154 L253 158 L257 158 Z" stroke = "#000000" stroke-width = "1" fill = "#000000" />	<path d = "M257 149 L257 145 L253 145 L253 149 L257 149 Z" stroke = "#000000" stroke-width = "1" fill = "#000000" />	<path d = "M257 140 L257 136 L253 136 L253 140 L257 140 Z" stroke = "#000000" stroke-width = "1" fill = "#000000" />	<path d = "M257 131 L257 127 L253 127 L253 131 L257 131 Z" stroke = "#000000" stroke-width = "1" fill = "#000000" />	<path d = "M266 122 L266 118 L262 118 L262 122 L266 122 Z" stroke = "#000000" stroke-width = "1" fill = "#000000" />	<path d = "M275 122 L275 118 L271 118 L271 122 L275 122 Z" stroke = "#000000" stroke-width = "1" fill = "#000000" />	<path d = "M284 122 L284 118 L280 118 L280 122 L284 122 Z" stroke = "#000000" stroke-width = "1" fill = "#000000" />	<path d = "M293 131 L293 127 L289 127 L289 131 L293 131 Z" stroke = "#000000" stroke-width = "1" fill = "#000000" />	<path d = "M293 140 L293 136 L289 136 L289 140 L293 140 Z" stroke = "#000000" stroke-width = "1" fill = "#000000" />	<path d = "M293 149 L293 145 L289 145 L289 149 L293 149 Z" stroke = "#000000" stroke-width = "1" fill = "#000000" />	<path d = "M293 158 L293 154 L289 154 L289 158 L293 158 Z" stroke = "#000000" stroke-width = "1" fill = "#000000" />	<path d = "M293 167 L293 163 L289 163 L289 167 L293 167 Z" stroke = "#000000" stroke-width = "1" fill = "#000000" />	<path d = "M293 176 L293 172 L289 172 L289 176 L293 176 Z" stroke = "#000000" stroke-width = "1" fill = "#000000" />	<path d = "M284 149 L284 145 L280 145 L280 149 L284 149 Z" stroke = "#000000" stroke-width = "1" fill = "#000000" />	<path d = "M275 149 L275 145 L271 145 L271 149 L275 149 Z" stroke = "#000000" stroke-width = "1" fill = "#000000" />	<path d = "M266 149 L266 145 L262 145 L262 149 L266 149 Z" stroke = "#000000" stroke-width = "1" fill = "#000000" />	<path d = "M311 176 L311 172 L307 172 L307 176 L311 176 Z" stroke = "#000000" stroke-width = "1" fill = "#000000" />	<path d = "M311 167 L311 163 L307 163 L307 167 L311 167 Z" stroke = "#000000" stroke-width = "1" fill = "#000000" />	<path d = "M311 158 L311 154 L307 154 L307 158 L311 158 Z" stroke = "#000000" stroke-width = "1" fill = "#000000" />	<path d = "M311 149 L311 145 L307 145 L307 149 L311 149 Z" stroke = "#000000" stroke-width = "1" fill = "#000000" />	<path d = "M311 140 L311 136 L307 136 L307 140 L311 140 Z" stroke = "#000000" stroke-width = "1" fill = "#000000" />	<path d = "M311 131 L311 127 L307 127 L307 131 L311 131 Z" stroke = "#000000" stroke-width = "1" fill = "#000000" />	<path d = "M311 122 L311 118 L307 118 L307 122 L311 122 Z" stroke = "#000000" stroke-width = "1" fill = "#000000" />	<path d = "M320 149 L320 145 L316 145 L316 149 L320 149 Z" stroke = "#000000" stroke-width = "1" fill = "#000000" />	<path d = "M329 140 L329 136 L325 136 L325 140 L329 140 Z" stroke = "#000000" stroke-width = "1" fill = "#000000" />	<path d = "M338 131 L338 127 L334 127 L334 131 L338 131 Z" stroke = "#000000" stroke-width = "1" fill = "#000000" />	<path d = "M347 122 L347 118 L343 118 L343 122 L347 122 Z" stroke = "#000000" stroke-width = "1" fill = "#000000" />	<path d = "M329 158 L329 154 L325 154 L325 158 L329 158 Z" stroke = "#000000" stroke-width = "1" fill = "#000000" />	<path d = "M338 167 L338 163 L334 163 L334 167 L338 167 Z" stroke = "#000000" stroke-width = "1" fill = "#000000" />	<path d = "M347 176 L347 172 L343 172 L343 176 L347 176 Z" stroke = "#000000" stroke-width = "1" fill = "#000000" />	<path d = "M365 176 L365 172 L361 172 L361 176 L365 176 Z" stroke = "#000000" stroke-width = "1" fill = "#000000" />	<path d = "M365 167 L365 163 L361 163 L361 167 L365 167 Z" stroke = "#000000" stroke-width = "1" fill = "#000000" />	<path d = "M365 158 L365 154 L361 154 L361 158 L365 158 Z" stroke = "#000000" stroke-width = "1" fill = "#000000" />	<path d = "M365 149 L365 145 L361 145 L361 149 L365 149 Z" stroke = "#000000" stroke-width = "1" fill = "#000000" />	<path d = "M365 140 L365 136 L361 136 L361 140 L365 140 Z" stroke = "#000000" stroke-width = "1" fill = "#000000" />	<path d = "M365 131 L365 127 L361 127 L361 131 L365 131 Z" stroke = "#000000" stroke-width = "1" fill = "#000000" />	<path d = "M365 122 L365 118 L361 118 L361 122 L365 122 Z" stroke = "#000000" stroke-width = "1" fill = "#000000" />	<path d = "M374 122 L374 118 L370 118 L370 122 L374 122 Z" stroke = "#000000" stroke-width = "1" fill = "#000000" />	<path d = "M383 122 L383 118 L379 118 L379 122 L383 122 Z" stroke = "#000000" stroke-width = "1" fill = "#000000" />	<path d = "M392 122 L392 118 L388 118 L388 122 L392 122 Z" stroke = "#000000" stroke-width = "1" fill = "#000000" />	<path d = "M401 122 L401 118 L397 118 L397 122 L401 122 Z" stroke = "#000000" stroke-width = "1" fill = "#000000" />	<path d = "M383 149 L383 145 L379 145 L379 149 L383 149 Z" stroke = "#000000" stroke-width = "1" fill = "#000000" />	<path d = "M374 149 L374 145 L370 145 L370 149 L374 149 Z" stroke = "#000000" stroke-width = "1" fill = "#000000" />	<path d = "M374 176 L374 172 L370 172 L370 176 L374 176 Z" stroke = "#000000" stroke-width = "1" fill = "#000000" />	<path d = "M383 176 L383 172 L379 172 L379 176 L383 176 Z" stroke = "#000000" stroke-width = "1" fill = "#000000" />	<path d = "M392 176 L392 172 L388 172 L388 176 L392 176 Z" stroke = "#000000" stroke-width = "1" fill = "#000000" />	<path d = "M401 176 L401 172 L397 172 L397 176 L401 176 Z" stroke = "#000000" stroke-width = "1" fill = "#000000" />	<path d = "M149 275 L149 271 L145 271 L145 275 L149 275 Z" stroke = "#000000" stroke-width = "1" fill = "#000000" />	<path d = "M149 266 L149 262 L145 262 L145 266 L149 266 Z" stroke = "#000000" stroke-width = "1" fill = "#000000" />	<path d = "M149 257 L149 253 L145 253 L145 257 L149 257 Z" stroke = "#000000" stroke-width = "1" fill = "#000000" />	<path d = "M149 248 L149 244 L145 244 L145 248 L149 248 Z" stroke = "#000000" stroke-width = "1" fill = "#000000" />	<path d = "M149 239 L149 235 L145 235 L145 239 L149 239 Z" stroke = "#000000" stroke-width = "1" fill = "#000000" />	<path d = "M149 230 L149 226 L145 226 L145 230 L149 230 Z" stroke = "#000000" stroke-width = "1" fill = "#000000" />	<path d = "M158 221 L158 217 L154 217 L154 221 L158 221 Z" stroke = "#000000" stroke-width = "1" fill = "#000000" />	<path d = "M167 221 L167 217 L163 217 L163 221 L167 221 Z" stroke = "#000000" stroke-width = "1" fill = "#000000" />	<path d = "M176 221 L176 217 L172 217 L172 221 L176 221 Z" stroke = "#000000" stroke-width = "1" fill = "#000000" />	<path d = "M185 230 L185 226 L181 226 L181 230 L185 230 Z" stroke = "#000000" stroke-width = "1" fill = "#000000" />	<path d = "M185 239 L185 235 L181 235 L181 239 L185 239 Z" stroke = "#000000" stroke-width = "1" fill = "#000000" />	<path d = "M185 248 L185 244 L181 244 L181 248 L185 248 Z" stroke = "#000000" stroke-width = "1" fill = "#000000" />	<path d = "M185 257 L185 253 L181 253 L181 257 L185 257 Z" stroke = "#000000" stroke-width = "1" fill = "#000000" />	<path d = "M185 266 L185 262 L181 262 L181 266 L185 266 Z" stroke = "#000000" stroke-width = "1" fill = "#000000" />	<path d = "M185 275 L185 271 L181 271 L181 275 L185 275 Z" stroke = "#000000" stroke-width = "1" fill = "#000000" />	<path d = "M176 248 L176 244 L172 244 L172 248 L176 248 Z" stroke = "#000000" stroke-width = "1" fill = "#000000" />	<path d = "M167 248 L167 244 L163 244 L163 248 L167 248 Z" stroke = "#000000" stroke-width = "1" fill = "#000000" />	<path d = "M158 248 L158 244 L154 244 L154 248 L158 248 Z" stroke = "#000000" stroke-width = "1" fill = "#000000" />	<path d = "M257 266 L257 262 L253 262 L253 266 L257 266 Z" stroke = "#000000" stroke-width = "1" fill = "#000000" />	<path d = "M257 257 L257 253 L253 253 L253 257 L257 257 Z" stroke = "#000000" stroke-width = "1" fill = "#000000" />	<path d = "M257 248 L257 244 L253 244 L253 248 L257 248 Z" stroke = "#000000" stroke-width = "1" fill = "#000000" />	<path d = "M257 239 L257 235 L253 235 L253 239 L257 239 Z" stroke = "#000000" stroke-width = "1" fill = "#000000" />	<path d = "M257 230 L257 226 L253 226 L253 230 L257 230 Z" stroke = "#000000" stroke-width = "1" fill = "#000000" />	<path d = "M266 221 L266 217 L262 217 L262 221 L266 221 Z" stroke = "#000000" stroke-width = "1" fill = "#000000" />	<path d = "M275 221 L275 217 L271 217 L271 221 L275 221 Z" stroke = "#000000" stroke-width = "1" fill = "#000000" />	<path d = "M284 221 L284 217 L280 217 L280 221 L284 221 Z" stroke = "#000000" stroke-width = "1" fill = "#000000" />	<path d = "M293 230 L293 226 L289 226 L289 230 L293 230 Z" stroke = "#000000" stroke-width = "1" fill = "#000000" />	<path d = "M293 266 L293 262 L289 262 L289 266 L293 266 Z" stroke = "#000000" stroke-width = "1" fill = "#000000" />	<path d = "M284 275 L284 271 L280 271 L280 275 L284 275 Z" stroke = "#000000" stroke-width = "1" fill = "#000000" />	<path d = "M275 275 L275 271 L271 271 L271 275 L275 275 Z" stroke = "#000000" stroke-width = "1" fill = "#000000" />	<path d = "M266 275 L266 271 L262 271 L262 275 L266 275 Z" stroke = "#000000" stroke-width = "1" fill = "#000000" />	<path d = "M311 275 L311 271 L307 271 L307 275 L311 275 Z" stroke = "#000000" stroke-width = "1" fill = "#000000" />	<path d = "M311 266 L311 262 L307 262 L307 266 L311 266 Z" stroke = "#000000" stroke-width = "1" fill = "#000000" />	<path d = "M311 257 L311 253 L307 253 L307 257 L311 257 Z" stroke = "#000000" stroke-width = "1" fill = "#000000" />	<path d = "M311 248 L311 244 L307 244 L307 248 L311 248 Z" stroke = "#000000" stroke-width = "1" fill = "#000000" />	<path d = "M311 239 L311 235 L307 235 L307 239 L311 239 Z" stroke = "#000000" stroke-width = "1" fill = "#000000" />	<path d = "M311 230 L311 226 L307 226 L307 230 L311 230 Z" stroke = "#000000" stroke-width = "1" fill = "#000000" />	<path d = "M320 221 L320 217 L316 217 L316 221 L320 221 Z" stroke = "#000000" stroke-width = "1" fill = "#000000" />	<path d = "M329 221 L329 217 L325 217 L325 221 L329 221 Z" stroke = "#000000" stroke-width = "1" fill = "#000000" />	<path d = "M338 221 L338 217 L334 217 L334 221 L338 221 Z" stroke = "#000000" stroke-width = "1" fill = "#000000" />	<path d = "M347 230 L347 226 L343 226 L343 230 L347 230 Z" stroke = "#000000" stroke-width = "1" fill = "#000000" />	<path d = "M347 239 L347 235 L343 235 L343 239 L347 239 Z" stroke = "#000000" stroke-width = "1" fill = "#000000" />	<path d = "M347 248 L347 244 L343 244 L343 248 L347 248 Z" stroke = "#000000" stroke-width = "1" fill = "#000000" />	<path d = "M347 257 L347 253 L343 253 L343 257 L347 257 Z" stroke = "#000000" stroke-width = "1" fill = "#000000" />	<path d = "M347 266 L347 262 L343 262 L343 266 L347 266 Z" stroke = "#000000" stroke-width = "1" fill = "#000000" />	<path d = "M347 275 L347 271 L343 271 L343 275 L347 275 Z" stroke = "#000000" stroke-width = "1" fill = "#000000" />	<path d = "M338 248 L338 244 L334 244 L334 248 L338 248 Z" stroke = "#000000" stroke-width = "1" fill = "#000000" />	<path d = "M329 248 L329 244 L325 244 L325 248 L329 248 Z" stroke = "#000000" stroke-width = "1" fill = "#000000" />	<path d = "M320 248 L320 244 L316 244 L316 248 L320 248 Z" stroke = "#000000" stroke-width = "1" fill = "#000000" />	<path d = "M365 275 L365 271 L361 271 L361 275 L365 275 Z" stroke = "#000000" stroke-width = "1" fill = "#000000" />	<path d = "M365 266 L365 262 L361 262 L361 266 L365 266 Z" stroke = "#000000" stroke-width = "1" fill = "#000000" />	<path d = "M365 257 L365 253 L361 253 L361 257 L365 257 Z" stroke = "#000000" stroke-width = "1" fill = "#000000" />	<path d = "M365 248 L365 244 L361 244 L361 248 L365 248 Z" stroke = "#000000" stroke-width = "1" fill = "#000000" />	<path d = "M365 239 L365 235 L361 235 L361 239 L365 239 Z" stroke = "#000000" stroke-width = "1" fill = "#000000" />	<path d = "M365 230 L365 226 L361 226 L361 230 L365 230 Z" stroke = "#000000" stroke-width = "1" fill = "#000000" />	<path d = "M365 221 L365 217 L361 217 L361 221 L365 221 Z" stroke = "#000000" stroke-width = "1" fill = "#000000" />	<path d = "M374 221 L374 217 L370 217 L370 221 L374 221 Z" stroke = "#000000" stroke-width = "1" fill = "#000000" />	<path d = "M383 221 L383 217 L379 217 L379 221 L383 221 Z" stroke = "#000000" stroke-width = "1" fill = "#000000" />	<path d = "M392 221 L392 217 L388 217 L388 221 L392 221 Z" stroke = "#000000" stroke-width = "1" fill = "#000000" />	<path d = "M401 230 L401 226 L397 226 L397 230 L401 230 Z" stroke = "#000000" stroke-width = "1" fill = "#000000" />	<path d = "M401 239 L401 235 L397 235 L397 239 L401 239 Z" stroke = "#000000" stroke-width = "1" fill = "#000000" />	<path d = "M392 248 L392 244 L388 244 L388 248 L392 248 Z" stroke = "#000000" stroke-width = "1" fill = "#000000" />	<path d = "M383 248 L383 244 L379 244 L379 248 L383 248 Z" stroke = "#000000" stroke-width = "1" fill = "#000000" />	<path d = "M374 248 L374 244 L370 244 L370 248 L374 248 Z" stroke = "#000000" stroke-width = "1" fill = "#000000" />	<path d = "M383 257 L383 253 L379 253 L379 257 L383 257 Z" stroke = "#000000" stroke-width = "1" fill = "#000000" />	<path d = "M392 266 L392 262 L388 262 L388 266 L392 266 Z" stroke = "#000000" stroke-width = "1" fill = "#000000" />	<path d = "M401 275 L401 271 L397 271 L397 275 L401 275 Z" stroke = "#000000" stroke-width = "1" fill = "#000000" />	<path d = "M419 275 L419 271 L415 271 L415 275 L419 275 Z" stroke = "#000000" stroke-width = "1" fill = "#000000" />	<path d = "M419 266 L419 262 L415 262 L415 266 L419 266 Z" stroke = "#000000" stroke-width = "1" fill = "#000000" />	<path d = "M419 257 L419 253 L415 253 L415 257 L419 257 Z" stroke = "#000000" stroke-width = "1" fill = "#000000" />	<path d = "M419 248 L419 244 L415 244 L415 248 L419 248 Z" stroke = "#000000" stroke-width = "1" fill = "#000000" />	<path d = "M419 239 L419 235 L415 235 L415 239 L419 239 Z" stroke = "#000000" stroke-width = "1" fill = "#000000" />	<path d = "M419 230 L419 226 L415 226 L415 230 L419 230 Z" stroke = "#000000" stroke-width = "1" fill = "#000000" />	<path d = "M419 221 L419 217 L415 217 L415 221 L419 221 Z" stroke = "#000000" stroke-width = "1" fill = "#000000" />	<path d = "M428 221 L428 217 L424 217 L424 221 L428 221 Z" stroke = "#000000" stroke-width = "1" fill = "#000000" />	<path d = "M437 221 L437 217 L433 217 L433 221 L437 221 Z" stroke = "#000000" stroke-width = "1" fill = "#000000" />	<path d = "M446 230 L446 226 L442 226 L442 230 L446 230 Z" stroke = "#000000" stroke-width = "1" fill = "#000000" />	<path d = "M455 239 L455 235 L451 235 L451 239 L455 239 Z" stroke = "#000000" stroke-width = "1" fill = "#000000" />	<path d = "M455 248 L455 244 L451 244 L451 248 L455 248 Z" stroke = "#000000" stroke-width = "1" fill = "#000000" />	<path d = "M455 257 L455 253 L451 253 L451 257 L455 257 Z" stroke = "#000000" stroke-width = "1" fill = "#000000" />	<path d = "M446 266 L446 262 L442 262 L442 266 L446 266 Z" stroke = "#000000" stroke-width = "1" fill = "#000000" />	<path d = "M437 275 L437 271 L433 271 L433 275 L437 275 Z" stroke = "#000000" stroke-width = "1" fill = "#000000" />	<path d = "M428 275 L428 271 L424 271 L424 275 L428 275 Z" stroke = "#000000" stroke-width = "1" fill = "#000000" />	<path d = "M203 329 L203 325 L199 325 L199 329 L203 329 Z" stroke = "#000000" stroke-width = "1" fill = "#000000" />	<path d = "M212 329 L212 325 L208 325 L208 329 L212 329 Z" stroke = "#000000" stroke-width = "1" fill = "#000000" />	<path d = "M221 329 L221 325 L217 325 L217 329 L221 329 Z" stroke = "#000000" stroke-width = "1" fill = "#000000" />	<path d = "M230 329 L230 325 L226 325 L226 329 L230 329 Z" stroke = "#000000" stroke-width = "1" fill = "#000000" />	<path d = "M239 329 L239 325 L235 325 L235 329 L239 329 Z" stroke = "#000000" stroke-width = "1" fill = "#000000" />	<path d = "M221 338 L221 334 L217 334 L217 338 L221 338 Z" stroke = "#000000" stroke-width = "1" fill = "#000000" />	<path d = "M221 347 L221 343 L217 343 L217 347 L221 347 Z" stroke = "#000000" stroke-width = "1" fill = "#000000" />	<path d = "M221 356 L221 352 L217 352 L217 356 L221 356 Z" stroke = "#000000" stroke-width = "1" fill = "#000000" />	<path d = "M221 365 L221 361 L217 361 L217 365 L221 365 Z" stroke = "#000000" stroke-width = "1" fill = "#000000" />	<path d = "M221 374 L221 370 L217 370 L217 374 L221 374 Z" stroke = "#000000" stroke-width = "1" fill = "#000000" />	<path d = "M221 383 L221 379 L217 379 L217 383 L221 383 Z" stroke = "#000000" stroke-width = "1" fill = "#000000" />	<path d = "M257 383 L257 379 L253 379 L253 383 L257 383 Z" stroke = "#000000" stroke-width = "1" fill = "#000000" />	<path d = "M257 374 L257 370 L253 370 L253 374 L257 374 Z" stroke = "#000000" stroke-width = "1" fill = "#000000" />	<path d = "M257 365 L257 361 L253 361 L253 365 L257 365 Z" stroke = "#000000" stroke-width = "1" fill = "#000000" />	<path d = "M257 356 L257 352 L253 352 L253 356 L257 356 Z" stroke = "#000000" stroke-width = "1" fill = "#000000" />	<path d = "M257 347 L257 343 L253 343 L253 347 L257 347 Z" stroke = "#000000" stroke-width = "1" fill = "#000000" />	<path d = "M257 338 L257 334 L253 334 L253 338 L257 338 Z" stroke = "#000000" stroke-width = "1" fill = "#000000" />	<path d = "M266 329 L266 325 L262 325 L262 329 L266 329 Z" stroke = "#000000" stroke-width = "1" fill = "#000000" />	<path d = "M275 329 L275 325 L271 325 L271 329 L275 329 Z" stroke = "#000000" stroke-width = "1" fill = "#000000" />	<path d = "M284 329 L284 325 L280 325 L280 329 L284 329 Z" stroke = "#000000" stroke-width = "1" fill = "#000000" />	<path d = "M293 338 L293 334 L289 334 L289 338 L293 338 Z" stroke = "#000000" stroke-width = "1" fill = "#000000" />	<path d = "M293 347 L293 343 L289 343 L289 347 L293 347 Z" stroke = "#000000" stroke-width = "1" fill = "#000000" />	<path d = "M293 356 L293 352 L289 352 L289 356 L293 356 Z" stroke = "#000000" stroke-width = "1" fill = "#000000" />	<path d = "M293 365 L293 361 L289 361 L289 365 L293 365 Z" stroke = "#000000" stroke-width = "1" fill = "#000000" />	<path d = "M293 374 L293 370 L289 370 L289 374 L293 374 Z" stroke = "#000000" stroke-width = "1" fill = "#000000" />	<path d = "M293 383 L293 379 L289 379 L289 383 L293 383 Z" stroke = "#000000" stroke-width = "1" fill = "#000000" />	<path d = "M284 356 L284 352 L280 352 L280 356 L284 356 Z" stroke = "#000000" stroke-width = "1" fill = "#000000" />	<path d = "M275 356 L275 352 L271 352 L271 356 L275 356 Z" stroke = "#000000" stroke-width = "1" fill = "#000000" />	<path d = "M266 356 L266 352 L262 352 L262 356 L266 356 Z" stroke = "#000000" stroke-width = "1" fill = "#000000" />	<path d = "M311 383 L311 379 L307 379 L307 383 L311 383 Z" stroke = "#000000" stroke-width = "1" fill = "#000000" />	<path d = "M311 374 L311 370 L307 370 L307 374 L311 374 Z" stroke = "#000000" stroke-width = "1" fill = "#000000" />	<path d = "M311 365 L311 361 L307 361 L307 365 L311 365 Z" stroke = "#000000" stroke-width = "1" fill = "#000000" />	<path d = "M311 356 L311 352 L307 352 L307 356 L311 356 Z" stroke = "#000000" stroke-width = "1" fill = "#000000" />	<path d = "M311 347 L311 343 L307 343 L307 347 L311 347 Z" stroke = "#000000" stroke-width = "1" fill = "#000000" />	<path d = "M311 338 L311 334 L307 334 L307 338 L311 338 Z" stroke = "#000000" stroke-width = "1" fill = "#000000" />	<path d = "M311 329 L311 325 L307 325 L307 329 L311 329 Z" stroke = "#000000" stroke-width = "1" fill = "#000000" />	<path d = "M320 356 L320 352 L316 352 L316 356 L320 356 Z" stroke = "#000000" stroke-width = "1" fill = "#000000" />	<path d = "M329 347 L329 343 L325 343 L325 347 L329 347 Z" stroke = "#000000" stroke-width = "1" fill = "#000000" />	<path d = "M338 338 L338 334 L334 334 L334 338 L338 338 Z" stroke = "#000000" stroke-width = "1" fill = "#000000" />	<path d = "M347 329 L347 325 L343 325 L343 329 L347 329 Z" stroke = "#000000" stroke-width = "1" fill = "#000000" />	<path d = "M329 365 L329 361 L325 361 L325 365 L329 365 Z" stroke = "#000000" stroke-width = "1" fill = "#000000" />	<path d = "M338 374 L338 370 L334 370 L334 374 L338 374 Z" stroke = "#000000" stroke-width = "1" fill = "#000000" />	<path d = "M347 383 L347 379 L343 379 L343 383 L347 383 Z" stroke = "#000000" stroke-width = "1" fill = "#000000" />	<path d = "M365 383 L365 379 L361 379 L361 383 L365 383 Z" stroke = "#000000" stroke-width = "1" fill = "#000000" />	<path d = "M365 374 L365 370 L361 370 L361 374 L365 374 Z" stroke = "#000000" stroke-width = "1" fill = "#000000" />	<path d = "M365 365 L365 361 L361 361 L361 365 L365 365 Z" stroke = "#000000" stroke-width = "1" fill = "#000000" />	<path d = "M365 356 L365 352 L361 352 L361 356 L365 356 Z" stroke = "#000000" stroke-width = "1" fill = "#000000" />	<path d = "M365 347 L365 343 L361 343 L361 347 L365 347 Z" stroke = "#000000" stroke-width = "1" fill = "#000000" />	<path d = "M365 338 L365 334 L361 334 L361 338 L365 338 Z" stroke = "#000000" stroke-width = "1" fill = "#000000" />	<path d = "M365 329 L365 325 L361 325 L361 329 L365 329 Z" stroke = "#000000" stroke-width = "1" fill = "#000000" />	<path d = "M374 329 L374 325 L370 325 L370 329 L374 329 Z" stroke = "#000000" stroke-width = "1" fill = "#000000" />	<path d = "M383 329 L383 325 L379 325 L379 329 L383 329 Z" stroke = "#000000" stroke-width = "1" fill = "#000000" />	<path d = "M392 329 L392 325 L388 325 L388 329 L392 329 Z" stroke = "#000000" stroke-width = "1" fill = "#000000" />	<path d = "M401 329 L401 325 L397 325 L397 329 L401 329 Z" stroke = "#000000" stroke-width = "1" fill = "#000000" />	<path d = "M383 356 L383 352 L379 352 L379 356 L383 356 Z" stroke = "#000000" stroke-width = "1" fill = "#000000" />	<path d = "M374 356 L374 352 L370 352 L370 356 L374 356 Z" stroke = "#000000" stroke-width = "1" fill = "#000000" />	<path d = "M374 383 L374 379 L370 379 L370 383 L374 383 Z" stroke = "#000000" stroke-width = "1" fill = "#000000" />	<path d = "M383 383 L383 379 L379 379 L379 383 L383 383 Z" stroke = "#000000" stroke-width = "1" fill = "#000000" />	<path d = "M392 383 L392 379 L388 379 L388 383 L392 383 Z" stroke = "#000000" stroke-width = "1" fill = "#000000" />	<path d = "M401 383 L401 379 L397 379 L397 383 L401 383 Z" stroke = "#000000" stroke-width = "1" fill = "#000000" />	<path d = "M149 482 L149 478 L145 478 L145 482 L149 482 Z" stroke = "#000000" stroke-width = "1" fill = "#000000" />	<path d = "M149 473 L149 469 L145 469 L145 473 L149 473 Z" stroke = "#000000" stroke-width = "1" fill = "#000000" />	<path d = "M149 464 L149 460 L145 460 L145 464 L149 464 Z" stroke = "#000000" stroke-width = "1" fill = "#000000" />	<path d = "M149 455 L149 451 L145 451 L145 455 L149 455 Z" stroke = "#000000" stroke-width = "1" fill = "#000000" />	<path d = "M149 446 L149 442 L145 442 L145 446 L149 446 Z" stroke = "#000000" stroke-width = "1" fill = "#000000" />	<path d = "M149 437 L149 433 L145 433 L145 437 L149 437 Z" stroke = "#000000" stroke-width = "1" fill = "#000000" />	<path d = "M158 428 L158 424 L154 424 L154 428 L158 428 Z" stroke = "#000000" stroke-width = "1" fill = "#000000" />	<path d = "M167 428 L167 424 L163 424 L163 428 L167 428 Z" stroke = "#000000" stroke-width = "1" fill = "#000000" />	<path d = "M176 428 L176 424 L172 424 L172 428 L176 428 Z" stroke = "#000000" stroke-width = "1" fill = "#000000" />	<path d = "M185 437 L185 433 L181 433 L181 437 L185 437 Z" stroke = "#000000" stroke-width = "1" fill = "#000000" />	<path d = "M185 446 L185 442 L181 442 L181 446 L185 446 Z" stroke = "#000000" stroke-width = "1" fill = "#000000" />	<path d = "M185 455 L185 451 L181 451 L181 455 L185 455 Z" stroke = "#000000" stroke-width = "1" fill = "#000000" />	<path d = "M185 464 L185 460 L181 460 L181 464 L185 464 Z" stroke = "#000000" stroke-width = "1" fill = "#000000" />	<path d = "M185 473 L185 469 L181 469 L181 473 L185 473 Z" stroke = "#000000" stroke-width = "1" fill = "#000000" />	<path d = "M185 482 L185 478 L181 478 L181 482 L185 482 Z" stroke = "#000000" stroke-width = "1" fill = "#000000" />	<path d = "M176 455 L176 451 L172 451 L172 455 L176 455 Z" stroke = "#000000" stroke-width = "1" fill = "#000000" />	<path d = "M167 455 L167 451 L163 451 L163 455 L167 455 Z" stroke = "#000000" stroke-width = "1" fill = "#000000" />	<path d = "M158 455 L158 451 L154 451 L154 455 L158 455 Z" stroke = "#000000" stroke-width = "1" fill = "#000000" />	<path d = "M257 473 L257 469 L253 469 L253 473 L257 473 Z" stroke = "#000000" stroke-width = "1" fill = "#000000" />	<path d = "M257 464 L257 460 L253 460 L253 464 L257 464 Z" stroke = "#000000" stroke-width = "1" fill = "#000000" />	<path d = "M257 455 L257 451 L253 451 L253 455 L257 455 Z" stroke = "#000000" stroke-width = "1" fill = "#000000" />	<path d = "M257 446 L257 442 L253 442 L253 446 L257 446 Z" stroke = "#000000" stroke-width = "1" fill = "#000000" />	<path d = "M257 437 L257 433 L253 433 L253 437 L257 437 Z" stroke = "#000000" stroke-width = "1" fill = "#000000" />	<path d = "M266 428 L266 424 L262 424 L262 428 L266 428 Z" stroke = "#000000" stroke-width = "1" fill = "#000000" />	<path d = "M275 428 L275 424 L271 424 L271 428 L275 428 Z" stroke = "#000000" stroke-width = "1" fill = "#000000" />	<path d = "M284 428 L284 424 L280 424 L280 428 L284 428 Z" stroke = "#000000" stroke-width = "1" fill = "#000000" />	<path d = "M293 437 L293 433 L289 433 L289 437 L293 437 Z" stroke = "#000000" stroke-width = "1" fill = "#000000" />	<path d = "M293 473 L293 469 L289 469 L289 473 L293 473 Z" stroke = "#000000" stroke-width = "1" fill = "#000000" />	<path d = "M284 482 L284 478 L280 478 L280 482 L284 482 Z" stroke = "#000000" stroke-width = "1" fill = "#000000" />	<path d = "M275 482 L275 478 L271 478 L271 482 L275 482 Z" stroke = "#000000" stroke-width = "1" fill = "#000000" />	<path d = "M266 482 L266 478 L262 478 L262 482 L266 482 Z" stroke = "#000000" stroke-width = "1" fill = "#000000" />	<path d = "M311 482 L311 478 L307 478 L307 482 L311 482 Z" stroke = "#000000" stroke-width = "1" fill = "#000000" />	<path d = "M311 473 L311 469 L307 469 L307 473 L311 473 Z" stroke = "#000000" stroke-width = "1" fill = "#000000" />	<path d = "M311 464 L311 460 L307 460 L307 464 L311 464 Z" stroke = "#000000" stroke-width = "1" fill = "#000000" />	<path d = "M311 455 L311 451 L307 451 L307 455 L311 455 Z" stroke = "#000000" stroke-width = "1" fill = "#000000" />	<path d = "M311 446 L311 442 L307 442 L307 446 L311 446 Z" stroke = "#000000" stroke-width = "1" fill = "#000000" />	<path d = "M311 437 L311 433 L307 433 L307 437 L311 437 Z" stroke = "#000000" stroke-width = "1" fill = "#000000" />	<path d = "M320 428 L320 424 L316 424 L316 428 L320 428 Z" stroke = "#000000" stroke-width = "1" fill = "#000000" />	<path d = "M329 428 L329 424 L325 424 L325 428 L329 428 Z" stroke = "#000000" stroke-width = "1" fill = "#000000" />	<path d = "M338 428 L338 424 L334 424 L334 428 L338 428 Z" stroke = "#000000" stroke-width = "1" fill = "#000000" />	<path d = "M347 437 L347 433 L343 433 L343 437 L347 437 Z" stroke = "#000000" stroke-width = "1" fill = "#000000" />	<path d = "M347 446 L347 442 L343 442 L343 446 L347 446 Z" stroke = "#000000" stroke-width = "1" fill = "#000000" />	<path d = "M347 455 L347 451 L343 451 L343 455 L347 455 Z" stroke = "#000000" stroke-width = "1" fill = "#000000" />	<path d = "M347 464 L347 460 L343 460 L343 464 L347 464 Z" stroke = "#000000" stroke-width = "1" fill = "#000000" />	<path d = "M347 473 L347 469 L343 469 L343 473 L347 473 Z" stroke = "#000000" stroke-width = "1" fill = "#000000" />	<path d = "M347 482 L347 478 L343 478 L343 482 L347 482 Z" stroke = "#000000" stroke-width = "1" fill = "#000000" />	<path d = "M338 455 L338 451 L334 451 L334 455 L338 455 Z" stroke = "#000000" stroke-width = "1" fill = "#000000" />	<path d = "M329 455 L329 451 L325 451 L325 455 L329 455 Z" stroke = "#000000" stroke-width = "1" fill = "#000000" />	<path d = "M320 455 L320 451 L316 451 L316 455 L320 455 Z" stroke = "#000000" stroke-width = "1" fill = "#000000" />	<path d = "M365 482 L365 478 L361 478 L361 482 L365 482 Z" stroke = "#000000" stroke-width = "1" fill = "#000000" />	<path d = "M365 473 L365 469 L361 469 L361 473 L365 473 Z" stroke = "#000000" stroke-width = "1" fill = "#000000" />	<path d = "M365 464 L365 460 L361 460 L361 464 L365 464 Z" stroke = "#000000" stroke-width = "1" fill = "#000000" />	<path d = "M365 455 L365 451 L361 451 L361 455 L365 455 Z" stroke = "#000000" stroke-width = "1" fill = "#000000" />	<path d = "M365 446 L365 442 L361 442 L361 446 L365 446 Z" stroke = "#000000" stroke-width = "1" fill = "#000000" />	<path d = "M365 437 L365 433 L361 433 L361 437 L365 437 Z" stroke = "#000000" stroke-width = "1" fill = "#000000" />	<path d = "M365 428 L365 424 L361 424 L361 428 L365 428 Z" stroke = "#000000" stroke-width = "1" fill = "#000000" />	<path d = "M374 428 L374 424 L370 424 L370 428 L374 428 Z" stroke = "#000000" stroke-width = "1" fill = "#000000" />	<path d = "M383 428 L383 424 L379 424 L379 428 L383 428 Z" stroke = "#000000" stroke-width = "1" fill = "#000000" />	<path d = "M392 428 L392 424 L388 424 L388 428 L392 428 Z" stroke = "#000000" stroke-width = "1" fill = "#000000" />	<path d = "M401 437 L401 433 L397 433 L397 437 L401 437 Z" stroke = "#000000" stroke-width = "1" fill = "#000000" />	<path d = "M401 446 L401 442 L397 442 L397 446 L401 446 Z" stroke = "#000000" stroke-width = "1" fill = "#000000" />	<path d = "M392 455 L392 451 L388 451 L388 455 L392 455 Z" stroke = "#000000" stroke-width = "1" fill = "#000000" />	<path d = "M383 455 L383 451 L379 451 L379 455 L383 455 Z" stroke = "#000000" stroke-width = "1" fill = "#000000" />	<path d = "M374 455 L374 451 L370 451 L370 455 L374 455 Z" stroke = "#000000" stroke-width = "1" fill = "#000000" />	<path d = "M383 464 L383 460 L379 460 L379 464 L383 464 Z" stroke = "#000000" stroke-width = "1" fill = "#000000" />	<path d = "M392 473 L392 469 L388 469 L388 473 L392 473 Z" stroke = "#000000" stroke-width = "1" fill = "#000000" />	<path d = "M401 482 L401 478 L397 478 L397 482 L401 482 Z" stroke = "#000000" stroke-width = "1" fill = "#000000" />	<path d = "M419 482 L419 478 L415 478 L415 482 L419 482 Z" stroke = "#000000" stroke-width = "1" fill = "#000000" />	<path d = "M419 473 L419 469 L415 469 L415 473 L419 473 Z" stroke = "#000000" stroke-width = "1" fill = "#000000" />	<path d = "M419 464 L419 460 L415 460 L415 464 L419 464 Z" stroke = "#000000" stroke-width = "1" fill = "#000000" />	<path d = "M419 455 L419 451 L415 451 L415 455 L419 455 Z" stroke = "#000000" stroke-width = "1" fill = "#000000" />	<path d = "M419 446 L419 442 L415 442 L415 446 L419 446 Z" stroke = "#000000" stroke-width = "1" fill = "#000000" />	<path d = "M419 437 L419 433 L415 433 L415 437 L419 437 Z" stroke = "#000000" stroke-width = "1" fill = "#000000" />	<path d = "M419 428 L419 424 L415 424 L415 428 L419 428 Z" stroke = "#000000" stroke-width = "1" fill = "#000000" />	<path d = "M428 428 L428 424 L424 424 L424 428 L428 428 Z" stroke = "#000000" stroke-width = "1" fill = "#000000" />	<path d = "M437 428 L437 424 L433 424 L433 428 L437 428 Z" stroke = "#000000" stroke-width = "1" fill = "#000000" />	<path d = "M446 437 L446 433 L442 433 L442 437 L446 437 Z" stroke = "#000000" stroke-width = "1" fill = "#000000" />	<path d = "M455 446 L455 442 L451 442 L451 446 L455 446 Z" stroke = "#000000" stroke-width = "1" fill = "#000000" />	<path d = "M455 455 L455 451 L451 451 L451 455 L455 455 Z" stroke = "#000000" stroke-width = "1" fill = "#000000" />	<path d = "M455 464 L455 460 L451 460 L451 464 L455 464 Z" stroke = "#000000" stroke-width = "1" fill = "#000000" />	<path d = "M446 473 L446 469 L442 469 L442 473 L446 473 Z" stroke = "#000000" stroke-width = "1" fill = "#000000" />	<path d = "M437 482 L437 478 L433 478 L433 482 L437 482 Z" stroke = "#000000" stroke-width = "1" fill = "#000000" />	<path d = "M428 482 L428 478 L424 478 L424 482 L428 482 Z" stroke = "#000000" stroke-width = "1" fill = "#000000" /></svg>